<?xml version="1.0" encoding="UTF-8"?>
<svg version="1.1" xmlns="http://www.w3.org/2000/svg" width="402" height="386">
<path d="M0 0 C1.22771118 0.65258789 1.22771118 0.65258789 2.48022461 1.31835938 C25.54077942 13.94638314 46.57343521 36.14492951 54.45703125 61.6328125 C60.25707497 82.37805756 61.43569652 105.58225231 55.75 126.5 C55.55301514 127.25982178 55.35603027 128.01964355 55.15307617 128.80249023 C53.41430012 135.1178966 50.89214825 140.6133531 47.6875 146.3125 C46.96711548 147.60800781 46.96711548 147.60800781 46.23217773 148.9296875 C41.19187995 157.796251 35.38159404 166.62994507 27.75 173.5 C27.09 173.5 26.43 173.5 25.75 173.5 C25.75 174.16 25.75 174.82 25.75 175.5 C24.32421875 176.68359375 24.32421875 176.68359375 22.4375 177.9375 C20.5949783 179.16971053 18.96051611 180.2723636 17.453125 181.90234375 C14.88624478 184.3102658 11.86016126 185.90774195 8.8125 187.625 C8.19181641 187.98464844 7.57113281 188.34429687 6.93164062 188.71484375 C3.88715358 190.44621338 1.14542348 191.69818915 -2.25 192.5 C-2.58 193.16 -2.91 193.82 -3.25 194.5 C-11.40878679 198.87077864 -20.24049344 200.72698045 -29.25 202.5 C-29.91451172 202.63212891 -30.57902344 202.76425781 -31.26367188 202.90039062 C-50.29525261 206.48438418 -70.1365363 202.78082952 -88.25 196.5 C-88.25 195.84 -88.25 195.18 -88.25 194.5 C-89.25546875 194.37238281 -89.25546875 194.37238281 -90.28125 194.2421875 C-94.11024167 193.28493958 -97.33843481 191.5499774 -100.75 189.625 C-101.4505249 189.23006348 -102.1510498 188.83512695 -102.87280273 188.42822266 C-110.05911882 184.23776571 -116.15254879 179.12243731 -122.25 173.5 C-123.24386719 172.62794922 -123.24386719 172.62794922 -124.2578125 171.73828125 C-133.52462917 163.18263888 -141.13964278 150.95599947 -146.25 139.5 C-146.25 138.51 -146.25 137.52 -146.25 136.5 C-146.91 136.17 -147.57 135.84 -148.25 135.5 C-149.89378078 131.26743086 -151.02508918 126.86931791 -152.25 122.5 C-152.70826172 121.02466797 -152.70826172 121.02466797 -153.17578125 119.51953125 C-157.76982138 103.0375958 -155.71464385 85.01817427 -152.25 68.5 C-152.05664062 67.56285156 -151.86328125 66.62570313 -151.6640625 65.66015625 C-149.56420435 57.4652553 -145.24723296 49.9012781 -141.25 42.5 C-140.72664063 41.52804688 -140.20328125 40.55609375 -139.6640625 39.5546875 C-129.41888846 22.13269103 -112.89421653 8.836831 -95.25 -0.5 C-94.39277344 -0.96148437 -93.53554687 -1.42296875 -92.65234375 -1.8984375 C-64.68575216 -15.81846046 -27.31701638 -14.56601692 0 0 Z M-115.78515625 42.41015625 C-121.20164394 49.27345201 -124.97814546 56.41541753 -128.25 64.5 C-128.83587891 65.90765625 -128.83587891 65.90765625 -129.43359375 67.34375 C-133.84377192 78.58728116 -137.32886112 93.7199778 -133.22265625 105.4296875 C-129.06307268 113.01142154 -122.45514448 118.71285569 -114.25 121.5 C-107.92581415 122.12205107 -103.43122748 121.29676994 -98.25 117.5 C-92.77053261 112.46282145 -89.96334226 105.96201125 -86.9375 99.3125 C-79.21963434 82.37277435 -68.19268717 68.47835328 -52.25 58.5 C-51.18910156 57.8296875 -50.12820312 57.159375 -49.03515625 56.46875 C-30.84252416 45.33257535 -11.25531331 41.79808978 9.75 42.5 C19.71366001 61.33839542 16.42959004 87.74142621 10.75 107.5 C9.6156495 110.93625202 8.23471413 114.20113669 6.75 117.5 C6.47526855 118.1295459 6.20053711 118.7590918 5.91748047 119.40771484 C-4.22463214 142.56741979 -20.49130191 163.2743963 -44.58203125 172.8203125 C-52.00288385 175.24308179 -59.51540373 176.53792256 -67.25 177.5 C-67.58 178.49 -67.91 179.48 -68.25 180.5 C-52.31061411 184.59452115 -30.66677273 184.87994418 -16.05859375 176.5234375 C-14.07111786 175.39877511 -12.04886437 174.55579396 -9.9375 173.6875 C8.15700101 165.54959835 23.33219906 150.38578508 30.75 131.875 C31.89204416 128.60727294 31.89204416 128.60727294 31.75 125.5 C32.41 125.5 33.07 125.5 33.75 125.5 C40.71926213 102.60099586 40.07052589 78.92663623 29 57.5625 C25.23845003 50.63529602 21.12740065 44.29982915 15.75 38.5 C14.97849609 37.61054688 14.97849609 37.61054688 14.19140625 36.703125 C5.99386607 27.7900888 -4.98746573 20.75401077 -16.25 16.5 C-17.66345703 15.94892578 -17.66345703 15.94892578 -19.10546875 15.38671875 C-54.25131133 2.61907448 -91.7543281 14.82469096 -115.78515625 42.41015625 Z M-28.25 103.5 C-29.06339844 104.29921875 -29.87679687 105.0984375 -30.71484375 105.921875 C-51.09838022 125.59888687 -77.42896477 144.0510841 -106.78515625 143.63671875 C-111.30174657 143.45849929 -115.7677733 143.07835183 -120.25 142.5 C-119.46718695 143.83855056 -118.67348123 145.17073644 -117.875 146.5 C-117.43414062 147.2425 -116.99328125 147.985 -116.5390625 148.75 C-115.90097656 149.61625 -115.90097656 149.61625 -115.25 150.5 C-114.59 150.5 -113.93 150.5 -113.25 150.5 C-112.86134766 151.37591797 -112.86134766 151.37591797 -112.46484375 152.26953125 C-111.16261037 154.66044848 -109.74172452 156.27487096 -107.8125 158.1875 C-107.21566406 158.78949219 -106.61882812 159.39148438 -106.00390625 160.01171875 C-101.30528686 163.99874322 -94.07879578 163.0552451 -88.23681641 162.72216797 C-82.83671133 162.11832235 -78.07496257 159.87005071 -73.25 157.5 C-72.26515625 157.02691406 -71.2803125 156.55382812 -70.265625 156.06640625 C-50.57847089 145.62388138 -35.89445435 125.7252789 -27.25 105.5 C-27.745 104.51 -27.745 104.51 -28.25 103.5 Z " fill="#192A44" transform="translate(247.25,96.5)"/>
<path d="M0 0 C0.72364746 -0.02231689 1.44729492 -0.04463379 2.19287109 -0.06762695 C5.29445395 -0.05392934 7.18580736 -0.00161144 9.56640625 2.08203125 C18.77910758 21.43833404 15.36272573 49.24571864 8.88671875 68.86328125 C7.90605525 71.43374284 6.81676644 73.9284004 5.6875 76.4375 C5.41276855 77.0670459 5.13803711 77.6965918 4.85498047 78.34521484 C-5.41685124 101.80113579 -22.22443914 123.09633039 -46.640625 132.75390625 C-53.24161113 134.91437393 -59.84931969 136.15266289 -66.73046875 137.04296875 C-69.29152832 137.29910448 -69.29152832 137.29910448 -71.3125 138.4375 C-78.13192723 137.3451666 -83.74095201 135.58376828 -89.3125 131.4375 C-90.42625 130.98375 -91.54 130.53 -92.6875 130.0625 C-97.05398092 128.105112 -100.70095064 125.57063633 -104.3125 122.4375 C-104.3125 122.1075 -104.3125 121.7775 -104.3125 121.4375 C-102.80623047 121.41623047 -102.80623047 121.41623047 -101.26953125 121.39453125 C-91.74879469 121.12057007 -83.99187167 119.65602709 -75.3125 115.4375 C-74.31734375 114.95410156 -73.3221875 114.47070312 -72.296875 113.97265625 C-51.93423185 103.07171247 -39.68118923 83.91084147 -30.3125 63.4375 C-31.12589844 64.23671875 -31.93929687 65.0359375 -32.77734375 65.859375 C-51.88149899 84.30135096 -77.61229486 103.17851141 -105.1875 103.6875 C-121.08672509 103.34373297 -121.08672509 103.34373297 -124.890625 100.0859375 C-126.38195149 97.94333552 -127.32316096 95.85895918 -128.3125 93.4375 C-128.55838867 92.85033203 -128.80427734 92.26316406 -129.05761719 91.65820312 C-133.07236683 81.96275225 -136.87392156 72.10450958 -136.3125 61.4375 C-134.82342937 63.39818245 -133.36448296 65.36036894 -131.98828125 67.40234375 C-127.86014843 73.37571646 -123.23777562 77.12907479 -116.3125 79.4375 C-109.9384505 79.97767369 -105.57051101 79.17411514 -100.3125 75.4375 C-95.63676552 70.36187692 -92.78347036 64.58116244 -90.0625 58.3125 C-82.15403387 40.97795164 -70.66607797 26.59368459 -54.3125 16.4375 C-53.25289063 15.76847656 -52.19328125 15.09945312 -51.1015625 14.41015625 C-35.61838316 4.92651583 -18.09123229 0.33416434 0 0 Z " fill="#395FE0" transform="translate(249.3125,137.5625)"/>
<path d="M0 0 C0.33 0 0.66 0 1 0 C1.22278115 3.89867006 0.45269257 6.41669166 -1 10 C-0.505 10.99 -0.505 10.99 0 12 C-0.969375 12.433125 -1.93875 12.86625 -2.9375 13.3125 C-4.68803756 14.32900235 -4.68803756 14.32900235 -6 16 C-6.60178192 18.88940682 -6.74944382 21.59042405 -6.796875 24.5390625 C-7 27 -7 27 -9 29 C-9.66 29 -10.32 29 -11 29 C-11.99 29.33 -12.98 29.66 -14 30 C-14.495 31.485 -14.495 31.485 -15 33 C-16.98 33 -18.96 33 -21 33 C-21 33.66 -21 34.32 -21 35 C-21.66 35 -22.32 35 -23 35 C-23 36.32 -23 37.64 -23 39 C-25 39 -25 39 -26.625 37.5 C-27.07875 37.005 -27.5325 36.51 -28 36 C-28 36.66 -28 37.32 -28 38 C-28.66 38 -29.32 38 -30 38 C-30 37.34 -30 36.68 -30 36 C-32.97 36.495 -32.97 36.495 -36 37 C-36 37.66 -36 38.32 -36 39 C-38.31 38.67 -40.62 38.34 -43 38 C-43.98120464 41.05263664 -43.98120464 42.94736336 -43 46 C-41.515 45.505 -41.515 45.505 -40 45 C-39.67 46.32 -39.34 47.64 -39 49 C-37.02 48.34 -35.04 47.68 -33 47 C-33 47.66 -33 48.32 -33 49 C-31.515 49.495 -31.515 49.495 -30 50 C-30 51.32 -30 52.64 -30 54 C-34.05606165 53.53199289 -37.46588679 53.12046792 -41 51 C-41 50.34 -41 49.68 -41 49 C-41.89525391 48.96132812 -41.89525391 48.96132812 -42.80859375 48.921875 C-45 48 -45 48 -46.59765625 45.078125 C-47.10496109 43.80952628 -47.59212189 42.53274914 -48.0625 41.25 C-48.31854004 40.57912354 -48.57458008 39.90824707 -48.83837891 39.21704102 C-51.87113747 31.02318759 -54.23515848 22.79231413 -54 14 C-52.51092937 15.96068245 -51.05198296 17.92286894 -49.67578125 19.96484375 C-45.54764843 25.93821646 -40.92527562 29.69157479 -34 32 C-27.717734 32.53239542 -23.14069691 31.82365886 -18 28 C-15.16787979 24.94231269 -12.80936231 21.70937319 -11.0234375 17.9375 C-10 16 -10 16 -8.5 14.52734375 C-6.68828585 12.68260356 -5.96700518 10.95180864 -5 8.5625 C-3.64449304 5.37368286 -2.36411792 2.58927201 0 0 Z " fill="#1A88EA" transform="translate(167,185)"/>
<path d="M0 0 C0.72364746 -0.02231689 1.44729492 -0.04463379 2.19287109 -0.06762695 C5.29445395 -0.05392934 7.18580736 -0.00161144 9.56640625 2.08203125 C18.77910758 21.43833404 15.36272573 49.24571864 8.88671875 68.86328125 C7.90605525 71.43374284 6.81676644 73.9284004 5.6875 76.4375 C5.41276855 77.0670459 5.13803711 77.6965918 4.85498047 78.34521484 C-3.28947065 96.9432222 -16.21283987 117.62014605 -35.3125 126.4375 C-34.10668283 122.82004849 -33.17696408 122.48635713 -30 120.5625 C-26.32929521 118.22395273 -23.88078244 115.99358338 -21.3125 112.4375 C-19.8275 111.4475 -19.8275 111.4475 -18.3125 110.4375 C-18.209375 109.468125 -18.10625 108.49875 -18 107.5 C-17.773125 106.489375 -17.54625 105.47875 -17.3125 104.4375 C-15.32104609 103.42058736 -13.32062926 102.42107352 -11.3125 101.4375 C-9.87281273 98.37388223 -9.87281273 98.37388223 -9.3125 95.4375 C-7.9925 95.4375 -6.6725 95.4375 -5.3125 95.4375 C-4.61830437 93.78211042 -3.96146236 92.11113977 -3.3125 90.4375 C-3.05984375 89.79425781 -2.8071875 89.15101563 -2.546875 88.48828125 C-0.35716295 82.50950863 0.34384537 76.7773354 0.6875 70.4375 C2.0075 70.7675 3.3275 71.0975 4.6875 71.4375 C6.84348937 65.9561711 7.96464978 62.31238901 6.6875 56.4375 C7.02079994 51.60465087 7.79763565 49.20688828 10.6875 45.4375 C11.18764953 42.89491537 11.18764953 42.89491537 10.6875 40.4375 C9.27083333 38.85416667 9.27083333 38.85416667 7.6875 37.4375 C7 35.25 7 35.25 6.6875 33.4375 C8.6675 32.9425 8.6675 32.9425 10.6875 32.4375 C10.6875 27.8175 10.6875 23.1975 10.6875 18.4375 C9.6975 18.9325 9.6975 18.9325 8.6875 19.4375 C8.1925 12.0125 8.1925 12.0125 7.6875 4.4375 C3.2325 3.4475 3.2325 3.4475 -1.3125 2.4375 C-1.6425 3.4275 -1.9725 4.4175 -2.3125 5.4375 C-2.8075 4.633125 -2.8075 4.633125 -3.3125 3.8125 C-3.9725 3.35875 -4.6325 2.905 -5.3125 2.4375 C-7.28193558 2.86421104 -9.251906 3.3076605 -11.1796875 3.89453125 C-14.21470646 4.6671826 -17.1955691 4.4375 -20.3125 4.4375 C-20.9725 5.0975 -21.6325 5.7575 -22.3125 6.4375 C-23.96432755 6.83794304 -25.63692621 7.15229595 -27.3125 7.4375 C-32.1537792 8.41278492 -36.78766299 9.39402522 -41.3125 11.4375 C-40.9825 10.4475 -40.6525 9.4575 -40.3125 8.4375 C-27.84129009 2.76405083 -13.6244151 0.25165746 0 0 Z " fill="#4945A6" transform="translate(249.3125,137.5625)"/>
<path d="M0 0 C0.33 0 0.66 0 1 0 C1.22278115 3.89867006 0.45269257 6.41669166 -1 10 C-0.505 10.99 -0.505 10.99 0 12 C-0.969375 12.433125 -1.93875 12.86625 -2.9375 13.3125 C-4.68803756 14.32900235 -4.68803756 14.32900235 -6 16 C-6.60178192 18.88940682 -6.74944382 21.59042405 -6.796875 24.5390625 C-7 27 -7 27 -9 29 C-9.66 29 -10.32 29 -11 29 C-11.99 29.33 -12.98 29.66 -14 30 C-14.33 30.99 -14.66 31.98 -15 33 C-22.03905044 33.93854006 -28.90272572 34.10808032 -36 34 C-36.33 33.34 -36.66 32.68 -37 32 C-36.29875 32.04640625 -35.5975 32.0928125 -34.875 32.140625 C-28.36536319 32.38827423 -23.24534201 32.13199808 -18 28 C-15.17625504 24.93098544 -12.81085358 21.71252275 -11.0234375 17.9375 C-10 16 -10 16 -8.5 14.52734375 C-6.68828585 12.68260356 -5.96700518 10.95180864 -5 8.5625 C-3.64449304 5.37368286 -2.36411792 2.58927201 0 0 Z " fill="#2875DC" transform="translate(167,185)"/>
<path d="M0 0 C0.495 0.99 0.495 0.99 1 2 C0.35891863 3.67667436 -0.31471955 5.34089996 -1 7 C-1.226875 8.155 -1.45375 9.31 -1.6875 10.5 C-6.13344387 28.58922201 -22.95426379 47.46018152 -38.41796875 57.07421875 C-38.94003906 57.37972656 -39.46210938 57.68523437 -40 58 C-40 57.01 -40 56.02 -40 55 C-38.171875 53.5703125 -38.171875 53.5703125 -35.75 52.125 C-32.04098328 49.78797066 -29.58757371 47.58279437 -27 44 C-26.01 43.34 -25.02 42.68 -24 42 C-23.896875 41.030625 -23.79375 40.06125 -23.6875 39.0625 C-23.3471875 37.5465625 -23.3471875 37.5465625 -23 36 C-21.00854609 34.98308736 -19.00812926 33.98357352 -17 33 C-15.56031273 29.93638223 -15.56031273 29.93638223 -15 27 C-13.68 27 -12.36 27 -11 27 C-10.30580437 25.34461042 -9.64896236 23.67363977 -9 22 C-8.62101562 21.03513672 -8.62101562 21.03513672 -8.234375 20.05078125 C-6.04466295 14.07200863 -5.34365463 8.3398354 -5 2 C-3.68 2.33 -2.36 2.66 -1 3 C-0.67 2.01 -0.34 1.02 0 0 Z " fill="#4149B2" transform="translate(255,206)"/>
<path d="M0 0 C0.99 0.33 1.98 0.66 3 1 C2.34 1.66 1.68 2.32 1 3 C0.67 3.99 0.34 4.98 0 6 C-2.31847874 6.7166207 -4.65319703 7.38242027 -7 8 C-7.66 8.66 -8.32 9.32 -9 10 C-9.515625 9.525625 -10.03125 9.05125 -10.5625 8.5625 C-13.02466773 6.73598484 -13.02466773 6.73598484 -16.5625 6.5625 C-20 6 -20 6 -21.71484375 3.96484375 C-22.13894531 3.31644531 -22.56304687 2.66804688 -23 2 C-22.00818726 1.96241577 -22.00818726 1.96241577 -20.99633789 1.92407227 C-18.01817695 1.80846898 -15.0403608 1.68558246 -12.0625 1.5625 C-10.50112305 1.50352539 -10.50112305 1.50352539 -8.90820312 1.44335938 C-7.42416992 1.38051758 -7.42416992 1.38051758 -5.91015625 1.31640625 C-4.53549194 1.26141968 -4.53549194 1.26141968 -3.13305664 1.20532227 C-1.0179272 1.22996136 -1.0179272 1.22996136 0 0 Z " fill="#2B6DED" transform="translate(168,257)"/>
<path d="M0 0 C0 0.99 0 1.98 0 3 C-8.2906891 10.45988935 -18.44099797 14.10313094 -29 17 C-29.6909375 17.20753906 -30.381875 17.41507812 -31.09375 17.62890625 C-36.11286211 19.05297973 -40.8007363 19.21663599 -46 19 C-46 18.67 -46 18.34 -46 18 C-43.41747107 17.49550598 -40.83411297 16.99625699 -38.25 16.5 C-37.15558594 16.28537109 -37.15558594 16.28537109 -36.0390625 16.06640625 C-32.60656468 15.41111121 -29.50830509 15 -26 15 C-25.67 14.34 -25.34 13.68 -25 13 C-23.06534007 12.21016177 -21.10059906 11.49350062 -19.125 10.8125 C-12.43228641 8.33782113 -5.1376466 5.1376466 0 0 Z " fill="#151E33" transform="translate(251,261)"/>
<path d="M0 0 C1.32 0 2.64 0 4 0 C0.66106632 11.12434976 -7.41686248 22.18602348 -16 30 C-16.66 30 -17.32 30 -18 30 C-18 30.66 -18 31.32 -18 32 C-19.32 32.66 -20.64 33.32 -22 34 C-21.45076653 30.29267409 -20.15184361 28.97297458 -17.25 26.6875 C-12.38931205 22.60347494 -8.67370183 18.85027698 -7.1875 12.5625 C-7.0946875 11.2940625 -7.0946875 11.2940625 -7 10 C-6.21625 9.9175 -5.4325 9.835 -4.625 9.75 C-1.92244851 9.26384675 -1.92244851 9.26384675 -0.6875 7.25 C0.08405427 4.72491331 0.14589484 2.62610707 0 0 Z " fill="#142036" transform="translate(291,240)"/>
<path d="M0 0 C1.125 1.6875 1.125 1.6875 2 4 C1.125 6.75 1.125 6.75 0 9 C0.66 9.33 1.32 9.66 2 10 C-1.33333333 13.33333333 -4.66666667 16.66666667 -8 20 C-6.58192622 15.52761347 -4.88695626 11.28853694 -3 7 C-4.175625 8.2375 -4.175625 8.2375 -5.375 9.5 C-8 12 -8 12 -10 12 C-10 10 -10 10 -7.8125 7.6875 C-6.884375 6.800625 -5.95625 5.91375 -5 5 C-4.071875 4.071875 -3.14375 3.14375 -2.1875 2.1875 C-1.1046875 1.1046875 -1.1046875 1.1046875 0 0 Z " fill="#3954C5" transform="translate(222,194)"/>
<path d="M0 0 C3 1 3 1 4 3 C9.35608709 5.46137335 14.60534976 5.29875761 20.375 5.25 C21.73625 5.26160156 21.73625 5.26160156 23.125 5.2734375 C27.40660841 5.26109857 31.27439171 5.06081175 35.4140625 3.921875 C38.85342153 3.03768248 39.81319628 2.9993594 43 4 C30.29471135 7.98597291 15.96159301 10.86346499 3 6 C0 2.7462039 0 2.7462039 0 0 Z " fill="#3471C2" transform="translate(123,233)"/>
<path d="M0 0 C0.66 1.32 1.32 2.64 2 4 C2.99 3.67 3.98 3.34 5 3 C5.33 4.32 5.66 5.64 6 7 C7.98 6.34 9.96 5.68 12 5 C12 5.66 12 6.32 12 7 C12.99 7.33 13.98 7.66 15 8 C15 9.32 15 10.64 15 12 C10.94393835 11.53199289 7.53411321 11.12046792 4 9 C4 8.34 4 7.68 4 7 C3.01 6.67 2.02 6.34 1 6 C0.67 4.02 0.34 2.04 0 0 Z " fill="#1A87EE" transform="translate(122,227)"/>
<path d="M0 0 C0.33 1.32 0.66 2.64 1 4 C0.44570312 4.38671875 -0.10859375 4.7734375 -0.6796875 5.171875 C-1.76636719 5.95304687 -1.76636719 5.95304687 -2.875 6.75 C-3.59429687 7.26046875 -4.31359375 7.7709375 -5.0546875 8.296875 C-7.08570565 10.07503547 -7.97855012 11.52701607 -9 14 C-9.66 14 -10.32 14 -11 14 C-11.66 16.31 -12.32 18.62 -13 21 C-13.66 21 -14.32 21 -15 21 C-16.35712166 22.55855981 -16.35712166 22.55855981 -17.625 24.5 C-18.07101563 25.1496875 -18.51703125 25.799375 -18.9765625 26.46875 C-19.31429687 26.9740625 -19.65203125 27.479375 -20 28 C-20.33 27.34 -20.66 26.68 -21 26 C-16.38088385 15.82261131 -7.68678231 7.87219856 0 0 Z " fill="#1A2334" transform="translate(127,113)"/>
<path d="M0 0 C0.66 0.33 1.32 0.66 2 1 C1.401875 1.825 0.80375 2.65 0.1875 3.5 C-1.51506765 5.9834004 -2.38656768 8.17146347 -3.1875 11.0625 C-4.7594832 15.65481049 -7.76935985 17.14090251 -11.94140625 19.28515625 C-12.62074219 19.52105469 -13.30007813 19.75695312 -14 20 C-14.66 19.67 -15.32 19.34 -16 19 C-15.34773438 18.38253906 -14.69546875 17.76507813 -14.0234375 17.12890625 C-8.5336961 11.80920109 -3.90880741 6.57823687 0 0 Z " fill="#1A2538" transform="translate(273,237)"/>
<path d="M0 0 C11.03627433 6.10466367 20.32640786 13.87905927 29 23 C25.45595664 23 24.89732095 22.39010515 22.3125 20.125 C21.68988281 19.59132813 21.06726563 19.05765625 20.42578125 18.5078125 C19 17 19 17 19 15 C18.34 15 17.68 15 17 15 C17 14.34 17 13.68 17 13 C16.45472656 12.7421875 15.90945313 12.484375 15.34765625 12.21875 C12.60261684 10.79370458 10.03986656 9.17117961 7.4375 7.5 C6.48746094 6.8915625 5.53742188 6.283125 4.55859375 5.65625 C2.69685758 4.45109559 0.84528773 3.23019182 -1 2 C-0.67 1.34 -0.34 0.68 0 0 Z " fill="#172232" transform="translate(251,99)"/>
<path d="M0 0 C0.5775 0.37125 1.155 0.7425 1.75 1.125 C1.75 0.465 1.75 -0.195 1.75 -0.875 C2.41 -0.875 3.07 -0.875 3.75 -0.875 C3.75 -0.215 3.75 0.445 3.75 1.125 C4.41 1.125 5.07 1.125 5.75 1.125 C5.75 0.465 5.75 -0.195 5.75 -0.875 C7.07 -0.215 8.39 0.445 9.75 1.125 C4.30416462 4.86901182 -1.64159962 6.53802502 -8.25 6.125 C-7.26 5.795 -6.27 5.465 -5.25 5.125 C-5.58 3.805 -5.91 2.485 -6.25 1.125 C-2.80384615 -1.09038462 -2.80384615 -1.09038462 0 0 Z " fill="#227CF0" transform="translate(157.25,232.875)"/>
<path d="M0 0 C2.60976152 3.01340464 3.37317578 4.97390588 3.5625 8.9375 C3.82811923 12.70597281 4.46663615 15.52437527 6 19 C6 20.32 6 21.64 6 23 C6.99 23.33 7.98 23.66 9 24 C9.33 27.3 9.66 30.6 10 34 C7.27094746 31.27094746 6.3128983 28.05316769 5 24.5 C4.5985376 23.418396 4.5985376 23.418396 4.18896484 22.31494141 C1.53098752 14.97800461 -0.41453624 7.87618858 0 0 Z " fill="#1F6DB2" transform="translate(113,199)"/>
<path d="M0 0 C2.20927044 0.2844814 4.41738979 0.5779096 6.625 0.875 C8.46964844 1.11863281 8.46964844 1.11863281 10.3515625 1.3671875 C14 2 14 2 16.96875 3.03125 C20.59867941 4.19133053 24.09827203 4.44933823 27.875 4.625 C28.56335938 4.66367187 29.25171875 4.70234375 29.9609375 4.7421875 C31.64023246 4.83548166 33.32007767 4.91878238 35 5 C31.96514196 6.77914363 30.07173119 7.2054109 26.5859375 6.828125 C25.74643555 6.74159668 24.90693359 6.65506836 24.04199219 6.56591797 C23.16188477 6.46166504 22.28177734 6.35741211 21.375 6.25 C20.47942383 6.15219238 19.58384766 6.05438477 18.66113281 5.95361328 C12.69451742 5.27534216 6.85196759 4.3654591 1 3 C0.67 2.01 0.34 1.02 0 0 Z " fill="#1C2637" transform="translate(171,294)"/>
<path d="M0 0 C0.66 0.33 1.32 0.66 2 1 C-15.08906505 12.45092096 -15.08906505 12.45092096 -23 15 C-23.66 14.67 -24.32 14.34 -25 14 C-20.375 11 -20.375 11 -17 11 C-17 10.34 -17 9.68 -17 9 C-16.195625 8.71125 -15.39125 8.4225 -14.5625 8.125 C-11.8673532 7.26737432 -11.8673532 7.26737432 -11 5 C-8.00120785 3.00080524 -5.40906589 2.08799975 -2 1 C-1.34 0.67 -0.68 0.34 0 0 Z " fill="#3267C2" transform="translate(193,220)"/>
<path d="M0 0 C0 0.66 0 1.32 0 2 C-1.28913487 2.67154933 -2.58140204 3.33708859 -3.875 4 C-4.59429687 4.37125 -5.31359375 4.7425 -6.0546875 5.125 C-8 6 -8 6 -10 6 C-10.33 6.66 -10.66 7.32 -11 8 C-16.12452507 10.91416125 -21.15412716 12.50247891 -27 13 C-26.67 12.34 -26.34 11.68 -26 11 C-22.9375 10.375 -22.9375 10.375 -20 10 C-20 9.34 -20 8.68 -20 8 C-19.11957031 7.67386719 -18.23914063 7.34773438 -17.33203125 7.01171875 C-16.17058594 6.57472656 -15.00914062 6.13773437 -13.8125 5.6875 C-12.66394531 5.25824219 -11.51539063 4.82898438 -10.33203125 4.38671875 C-6.96977601 2.98742144 -3.6270509 0 0 0 Z " fill="#141E30" transform="translate(255,283)"/>
<path d="M0 0 C0.66 0 1.32 0 2 0 C2.16834933 1.77067416 2.33461909 3.54154612 2.5 5.3125 C2.5928125 6.29863281 2.685625 7.28476563 2.78125 8.30078125 C3 11 3 11 3 14 C1 16.1875 1 16.1875 -1 18 C-1.99 15.69 -2.98 13.38 -4 11 C-2.68 10.67 -1.36 10.34 0 10 C0 6.7 0 3.4 0 0 Z " fill="#4C46C8" transform="translate(260,160)"/>
<path d="M0 0 C2.64 0 5.28 0 8 0 C8.33 1.32 8.66 2.64 9 4 C5.16674383 6.70582788 2.67461851 7.32613618 -2 7 C-1.34 4.69 -0.68 2.38 0 0 Z " fill="#2F69E8" transform="translate(186,216)"/>
<path d="M0 0 C0.33 0.66 0.66 1.32 1 2 C-1.8042369 5.11581877 -4.09249018 6.56039112 -8 8 C-8.66 8.66 -9.32 9.32 -10 10 C-12.83939329 12.34984273 -15.53569417 13.74900067 -19 15 C-17.52623126 11.28707987 -15.59367295 9.71089755 -12.3125 7.5 C-11.42433594 6.90058594 -10.53617188 6.30117187 -9.62109375 5.68359375 C-6.47159649 3.66059327 -3.2885127 1.78723516 0 0 Z " fill="#162034" transform="translate(150,97)"/>
<path d="M0 0 C-12.75524111 3.04974938 -12.75524111 3.04974938 -17.1875 3.625 C-19.94643572 3.83776796 -19.94643572 3.83776796 -22 5 C-24.0571802 4.59255295 -26.09831097 4.10151304 -28.125 3.5625 C-29.22070312 3.27503906 -30.31640625 2.98757813 -31.4453125 2.69140625 C-32.28835937 2.46324219 -33.13140625 2.23507812 -34 2 C-34 1.67 -34 1.34 -34 1 C-33.44650879 1.01047363 -32.89301758 1.02094727 -32.32275391 1.03173828 C-18.97459838 1.4739349 -18.97459838 1.4739349 -5.875 -0.66015625 C-3.64503094 -1.06433814 -2.13967441 -0.68297643 0 0 Z " fill="#3A57B2" transform="translate(200,271)"/>
<path d="M0 0 C0.33 0.66 0.66 1.32 1 2 C0.09176973 4.43557572 -0.86828071 6.76195517 -1.9375 9.125 C-2.22818359 9.78371094 -2.51886719 10.44242188 -2.81835938 11.12109375 C-3.53860198 12.75049505 -4.26841143 14.37566132 -5 16 C-6.10370043 12.6888987 -5.92673641 10.75251051 -5.5625 7.3125 C-5.46066406 6.31863281 -5.35882813 5.32476562 -5.25390625 4.30078125 C-5.17011719 3.54152344 -5.08632812 2.78226563 -5 2 C-3.02 2.495 -3.02 2.495 -1 3 C-0.67 2.01 -0.34 1.02 0 0 Z " fill="#4C4FD1" transform="translate(255,206)"/>
<path d="M0 0 C3.32901247 2.21934164 3.75023244 3.34683329 5 7 C2 9 2 9 0 8.6875 C-0.66 8.460625 -1.32 8.23375 -2 8 C-2.99 7.67 -3.98 7.34 -5 7 C-3.35 4.69 -1.7 2.38 0 0 Z " fill="#2F68E5" transform="translate(180,167)"/>
<path d="M0 0 C0.99 0.33 1.98 0.66 3 1 C3.433125 2.2065625 3.433125 2.2065625 3.875 3.4375 C4.24625 4.283125 4.6175 5.12875 5 6 C6.2684375 6.4640625 6.2684375 6.4640625 7.5625 6.9375 C8.366875 7.288125 9.17125 7.63875 10 8 C10.75 10.8125 10.75 10.8125 11 14 C11.32635698 15.66804677 11.65725594 17.33524314 12 19 C11.34 19 10.68 19 10 19 C9.29423828 17.57107422 9.29423828 17.57107422 8.57421875 16.11328125 C7.94542084 14.84630039 7.31650852 13.57937631 6.6875 12.3125 C6.37876953 11.68666016 6.07003906 11.06082031 5.75195312 10.41601562 C3.9761894 6.84579593 2.10467271 3.38690408 0 0 Z " fill="#152034" transform="translate(267,140)"/>
<path d="M0 0 C0.33 0.66 0.66 1.32 1 2 C-0.70288198 3.13323463 -2.41258523 4.25622235 -4.125 5.375 C-5.07632813 6.00148437 -6.02765625 6.62796875 -7.0078125 7.2734375 C-12.03596948 10.17480223 -16.20912413 11.27575599 -22 11 C-19.10403104 9.06935403 -16.47225068 7.90899329 -13.25 6.625 C-8.58179027 4.71579286 -4.2944711 2.63524363 0 0 Z " fill="#3660BC" transform="translate(183,248)"/>
<path d="M0 0 C0.33 0 0.66 0 1 0 C1.22278115 3.89867006 0.45269257 6.41669166 -1 10 C-0.67 10.66 -0.34 11.32 0 12 C-1.65 12.66 -3.3 13.32 -5 14 C-5.73211081 8.14311354 -3.48028193 4.4958396 0 0 Z " fill="#2A71E9" transform="translate(167,185)"/>
<path d="M0 0 C4.85110358 4.41009417 8.348107 9.58004353 12 15 C11.01 15.33 10.02 15.66 9 16 C8.71125 15.38125 8.4225 14.7625 8.125 14.125 C7.06279958 11.86674235 7.06279958 11.86674235 5 10 C2.57931303 7.12543423 0.52970929 4.4418459 -1 1 C-0.67 0.67 -0.34 0.34 0 0 Z " fill="#192234" transform="translate(280,123)"/>
<path d="M0 0 C0.99 0 1.98 0 3 0 C2.42415568 2.38564077 1.77772405 4.66682784 1 7 C2.32 6.67 3.64 6.34 5 6 C5 6.66 5 7.32 5 8 C4.34 8 3.68 8 3 8 C2.34 9.32 1.68 10.64 1 12 C-1 10 -1 10 -1.23046875 7.87109375 C-1.20919922 6.66646484 -1.20919922 6.66646484 -1.1875 5.4375 C-1.18105469 4.63183594 -1.17460937 3.82617188 -1.16796875 2.99609375 C-1 1 -1 1 0 0 Z " fill="#4655DE" transform="translate(225,242)"/>
<path d="M0 0 C-1.09068668 3.77545388 -1.9083091 6.47043472 -5 9 C-7 3.375 -7 3.375 -7 0 C-4.3333581 -1.33332095 -2.83319697 -0.67102033 0 0 Z " fill="#4652D5" transform="translate(248,224)"/>
<path d="M0 0 C0.66 0.66 1.32 1.32 2 2 C1.20335937 2.44730469 0.40671875 2.89460938 -0.4140625 3.35546875 C-6.01328968 6.55016163 -11.24131925 9.63787598 -16 14 C-16.66 13.67 -17.32 13.34 -18 13 C-16.75482035 11.86966702 -15.50363348 10.74594964 -14.25 9.625 C-13.55390625 8.99851562 -12.8578125 8.37203125 -12.140625 7.7265625 C-10.14611613 6.11785279 -8.291943 5.10745145 -6 4 C-5.34 3.34 -4.68 2.68 -4 2 C-2.68252676 1.30251417 -1.35085807 0.63040043 0 0 Z " fill="#121F2E" transform="translate(157,116)"/>
<path d="M0 0 C0 0.33 0 0.66 0 1 C-8.91 1 -17.82 1 -27 1 C-19.00601971 -4.3293202 -8.90063231 -2.4137308 0 0 Z " fill="#101B2D" transform="translate(214,107)"/>
<path d="M0 0 C0 0.99 0 1.98 0 3 C0.66 3.33 1.32 3.66 2 4 C1.01 4.99 0.02 5.98 -1 7 C-1.598125 6.505 -2.19625 6.01 -2.8125 5.5 C-4.97029994 3.71723582 -4.97029994 3.71723582 -8 4 C-8 3.01 -8 2.02 -8 1 C-5.23735711 0.40267181 -2.83967231 0 0 0 Z " fill="#2874EC" transform="translate(160,260)"/>
<path d="M0 0 C-1.00417969 0.27585937 -2.00835937 0.55171875 -3.04296875 0.8359375 C-8.11895315 2.28548832 -13.03598022 4.15563141 -17.98828125 5.9765625 C-21 7 -21 7 -23 7 C-23 6.34 -23 5.68 -23 5 C-16.05461344 1.54408302 -7.80518505 -2.48265612 0 0 Z " fill="#111C2D" transform="translate(186,108)"/>
<path d="M0 0 C1.46849261 0.29901433 2.93338512 0.616154 4.39453125 0.94921875 C5.14412109 1.10583984 5.89371094 1.26246094 6.66601562 1.42382812 C8.51632029 1.81274567 10.36217197 2.22273997 12.20703125 2.63671875 C12.20703125 3.29671875 12.20703125 3.95671875 12.20703125 4.63671875 C10.92828125 4.49234375 9.64953125 4.34796875 8.33203125 4.19921875 C3.29422241 3.6385723 -1.74833754 3.13170344 -6.79296875 2.63671875 C-4.78229324 -0.58195153 -3.85057955 -0.36879907 0 0 Z " fill="#1B2636" transform="translate(210.79296875,85.36328125)"/>
<path d="M0 0 C0 0.33 0 0.66 0 1 C-1.05960938 1.13277344 -2.11921875 1.26554687 -3.2109375 1.40234375 C-4.59898279 1.58053875 -5.98700231 1.7589346 -7.375 1.9375 C-8.07367188 2.02451172 -8.77234375 2.11152344 -9.4921875 2.20117188 C-13.36783575 2.66318128 -13.36783575 2.66318128 -17 4 C-19.69565202 3.83219837 -22.32405554 3.38844355 -25 3 C-17.63859746 -1.41684152 -8.22781996 -0.1027051 0 0 Z " fill="#1D2636" transform="translate(201,86)"/>
<path d="M0 0 C-0.33 0.66 -0.66 1.32 -1 2 C-3 2.5 -3 2.5 -6 3 C-10.84123275 3.97350876 -15.47569497 4.95676547 -20 7 C-19 4 -19 4 -16.77734375 2.83203125 C-10.91211103 0.72635623 -6.23223633 -0.47035746 0 0 Z " fill="#414FB3" transform="translate(228,142)"/>
<path d="M0 0 C0.763125 0.515625 1.52625 1.03125 2.3125 1.5625 C4.46455581 3.00930378 6.63901429 4.3935767 8.84765625 5.75390625 C9.84667969 6.37136719 10.84570312 6.98882812 11.875 7.625 C12.84179688 8.21539062 13.80859375 8.80578125 14.8046875 9.4140625 C15.89136719 10.19910156 15.89136719 10.19910156 17 11 C17 11.66 17 12.32 17 13 C12.92957149 11.56643667 9.73739812 9.59321998 6.25 7.0625 C5.28578125 6.37285156 4.3215625 5.68320312 3.328125 4.97265625 C1 3 1 3 0 0 Z " fill="#192231" transform="translate(131,273)"/>
<path d="M0 0 C0.66 0 1.32 0 2 0 C1.66830805 6.30214697 -1.67323988 10.85216936 -5 16 C-6 14 -6 14 -5.22265625 11.3984375 C-4.83980469 10.40070313 -4.45695312 9.40296875 -4.0625 8.375 C-3.68222656 7.37210938 -3.30195313 6.36921875 -2.91015625 5.3359375 C-2.60980469 4.56507813 -2.30945313 3.79421875 -2 3 C-1.34 3 -0.68 3 0 3 C0 2.01 0 1.02 0 0 Z " fill="#121D35" transform="translate(281,219)"/>
<path d="M0 0 C1.35917857 0.96457834 2.69084721 1.96854629 4 3 C6.14733927 3.70514846 6.14733927 3.70514846 8 4 C8 4.66 8 5.32 8 6 C8.99 6 9.98 6 11 6 C11 6.99 11 7.98 11 9 C7.8411726 7.81543972 4.78725295 6.46399962 1.75 5 C1.06421875 4.67 0.3784375 4.34 -0.328125 4 C-2 3 -2 3 -3 1 C-2.01 0.67 -1.02 0.34 0 0 Z " fill="#2B63C4" transform="translate(155,263)"/>
<path d="M0 0 C0.7425 0.2475 1.485 0.495 2.25 0.75 C1.59 2.07 0.93 3.39 0.25 4.75 C-1.07 4.75 -2.39 4.75 -3.75 4.75 C-3.75 5.41 -3.75 6.07 -3.75 6.75 C-5.07 7.08 -6.39 7.41 -7.75 7.75 C-7.36094382 5.02660672 -6.68262433 3.66096786 -5 1.4375 C-2.75 -0.25 -2.75 -0.25 0 0 Z " fill="#2A6FEE" transform="translate(179.75,224.25)"/>
<path d="M0 0 C0.66 0 1.32 0 2 0 C1.48041715 4.37934119 0.94324258 8.68803391 0 13 C-0.99 12.34 -1.98 11.68 -3 11 C-2.88590407 9.54077307 -2.75834456 8.08259402 -2.625 6.625 C-2.55539062 5.81289062 -2.48578125 5.00078125 -2.4140625 4.1640625 C-2 2 -2 2 0 0 Z " fill="#4D4EC9" transform="translate(259,185)"/>
<path d="M0 0 C5.94 1.485 5.94 1.485 12 3 C12 3.66 12 4.32 12 5 C13.65 5.33 15.3 5.66 17 6 C17 6.33 17 6.66 17 7 C9.375 6.125 9.375 6.125 6 5 C6 4.34 6 3.68 6 3 C5.195625 2.87625 4.39125 2.7525 3.5625 2.625 C2.716875 2.41875 1.87125 2.2125 1 2 C0.67 1.34 0.34 0.68 0 0 Z " fill="#131E32" transform="translate(153,288)"/>
<path d="M0 0 C3.46116084 1.01302269 6.48593249 2.20711389 9.5625 4.0625 C12.572786 5.75920666 14.62171521 6.59051093 18 7 C18 7.33 18 7.66 18 8 C12.73946963 8.31563182 9.55426184 7.66590937 5 5 C5 4.34 5 3.68 5 3 C3.35 3 1.7 3 0 3 C0 2.01 0 1.02 0 0 Z " fill="#12305D" transform="translate(155,267)"/>
<path d="M0 0 C0.763125 0.165 1.52625 0.33 2.3125 0.5 C5.03596236 1.09145396 5.03596236 1.09145396 8 1 C0.88610478 6.55580866 0.88610478 6.55580866 -4 7 C-4 6.01 -4 5.02 -4 4 C-2.68 3.67 -1.36 3.34 0 3 C0 2.01 0 1.02 0 0 Z " fill="#4257DF" transform="translate(213,257)"/>
<path d="M0 0 C0 4.0744433 -2.09169249 6.11745033 -4.5 9.1875 C-4.92925781 9.74630859 -5.35851562 10.30511719 -5.80078125 10.88085938 C-6.86078055 12.25885847 -7.92956188 13.63009407 -9 15 C-9.66 14.34 -10.32 13.68 -11 13 C-10.34 12.01 -9.68 11.02 -9 10 C-8.34 10 -7.68 10 -7 10 C-6.773125 9.278125 -6.54625 8.55625 -6.3125 7.8125 C-4.75168987 4.46790687 -2.6968713 2.48396041 0 0 Z " fill="#151F30" transform="translate(135,133)"/>
<path d="M0 0 C0.66 0.33 1.32 0.66 2 1 C2.62669199 3.16467461 3.15427374 5.35864524 3.625 7.5625 C3.88539063 8.76003906 4.14578125 9.95757812 4.4140625 11.19140625 C4.60742188 12.11824219 4.80078125 13.04507813 5 14 C1.8962457 11.93083047 1.46780978 11.41805705 0.25 8.125 C-0.01296875 7.44695312 -0.2759375 6.76890625 -0.546875 6.0703125 C-1.06544044 3.70100488 -0.75618591 2.27877644 0 0 Z " fill="#131D32" transform="translate(298,152)"/>
<path d="M0 0 C3.3 0 6.6 0 10 0 C8.515 2.475 8.515 2.475 7 5 C3.34683329 3.75023244 2.21934164 3.32901247 0 0 Z " fill="#3168B3" transform="translate(145,259)"/>
<path d="M0 0 C0.66 0.33 1.32 0.66 2 1 C1.67 1.99 1.34 2.98 1 4 C-2.5625 5.6875 -2.5625 5.6875 -6 7 C-6.66 6.34 -7.32 5.68 -8 5 C-6.71475739 4.13619741 -5.42157581 3.28419631 -4.125 2.4375 C-3.04605469 1.72400391 -3.04605469 1.72400391 -1.9453125 0.99609375 C-1.30335938 0.66738281 -0.66140625 0.33867187 0 0 Z " fill="#2E67E8" transform="translate(182,250)"/>
<path d="M0 0 C1.32 0.33 2.64 0.66 4 1 C4.33 3.64 4.66 6.28 5 9 C5.99 9 6.98 9 8 9 C8 9.66 8 10.32 8 11 C7.34 11 6.68 11 6 11 C5.67 11.66 5.34 12.32 5 13 C3.50178941 9.62902617 3 7.79557881 3 4 C2.34 3.67 1.68 3.34 1 3 C0.67 2.01 0.34 1.02 0 0 Z " fill="#141F31" transform="translate(278,160)"/>
<path d="M0 0 C3.02010095 3.59535828 6 8.18625282 6 13 C6.66 13.33 7.32 13.66 8 14 C7.01 14 6.02 14 5 14 C4.15675328 12.421924 3.32576082 10.8372958 2.5 9.25 C2.0359375 8.36828125 1.571875 7.4865625 1.09375 6.578125 C0 4 0 4 0 0 Z " fill="#172233" transform="translate(101,232)"/>
<path d="M0 0 C0.66 0.66 1.32 1.32 2 2 C1.54625 2.825 1.0925 3.65 0.625 4.5 C-1.16307742 8.35124368 -2.07368903 11.86722799 -3 16 C-3.33 16 -3.66 16 -4 16 C-4.25153688 9.71157812 -3.51233939 5.26850908 0 0 Z " fill="#0F1B2C" transform="translate(118,160)"/>
<path d="M0 0 C2.1875 -0.3125 2.1875 -0.3125 5 0 C8.12862678 2.6816801 10.63274497 5.63600602 13 9 C7.97290493 7.42903279 3.97133531 4.38006951 0 1 C0 0.67 0 0.34 0 0 Z " fill="#111C33" transform="translate(246,121)"/>
<path d="M0 0 C1.15957207 3.47871621 0.77456651 4.34219645 -0.4375 7.6875 C-0.72496094 8.49574219 -1.01242188 9.30398437 -1.30859375 10.13671875 C-1.53675781 10.75160156 -1.76492187 11.36648437 -2 12 C-2.66 12 -3.32 12 -4 12 C-4.33 12.66 -4.66 13.32 -5 14 C-6 11 -6 11 -4.78515625 8.30078125 C-4.21667969 7.31464844 -3.64820312 6.32851562 -3.0625 5.3125 C-2.49660156 4.31863281 -1.93070312 3.32476562 -1.34765625 2.30078125 C-0.90292969 1.54152344 -0.45820312 0.78226563 0 0 Z " fill="#151E32" transform="translate(105,141)"/>
<path d="M0 0 C0.33 0 0.66 0 1 0 C1 3.96 1 7.92 1 12 C0.01 12.495 0.01 12.495 -1 13 C-2.01936725 9.94189824 -2.00186825 8.50198793 -1.625 5.375 C-1.53476562 4.57835937 -1.44453125 3.78171875 -1.3515625 2.9609375 C-1 1 -1 1 0 0 Z " fill="#4C46A5" transform="translate(262,173)"/>
<path d="M0 0 C0.66 0 1.32 0 2 0 C3.65 3.3 5.3 6.6 7 10 C6.01 10 5.02 10 4 10 C0 3.375 0 3.375 0 0 Z " fill="#162031" transform="translate(291,140)"/>
<path d="M0 0 C4.72463088 0.46319911 8.17057052 1.09891706 12 4 C12 4.66 12 5.32 12 6 C10.3713449 5.57630928 8.74712622 5.1355377 7.125 4.6875 C6.22007812 4.44386719 5.31515625 4.20023437 4.3828125 3.94921875 C2 3 2 3 0 0 Z " fill="#141D2E" transform="translate(230,112)"/>
<path d="M0 0 C-0.99 1.485 -0.99 1.485 -2 3 C-2.66 3 -3.32 3 -4 3 C-4 2.01 -4 1.02 -4 0 C-6.31 0.33 -8.62 0.66 -11 1 C-7.14260851 -2.85739149 -4.71895155 -1.78271503 0 0 Z " fill="#2465DB" transform="translate(164,260)"/>
<path d="M0 0 C3 1 3 1 4 3 C6.30965848 4.05352843 8.6429774 5.05719096 11 6 C9 7 9 7 5.5 6.375 C2 5 2 5 0.5625 2.375 C0.376875 1.59125 0.19125 0.8075 0 0 Z " fill="#2170AF" transform="translate(123,233)"/>
<path d="M0 0 C0.66 0.33 1.32 0.66 2 1 C1.745504 2.48206495 1.47088238 3.96068615 1.1875 5.4375 C1.03667969 6.26121094 0.88585937 7.08492187 0.73046875 7.93359375 C0.48941406 8.61550781 0.24835938 9.29742187 0 10 C-0.99 10.33 -1.98 10.66 -3 11 C-2.01 7.37 -1.02 3.74 0 0 Z " fill="#121A2D" transform="translate(300,223)"/>
<path d="M0 0 C-2.51699845 2.51699845 -4.57554146 3.10964078 -8 4 C-10.1953125 3.55078125 -10.1953125 3.55078125 -12 3 C-10.75823305 2.29773859 -9.50614401 1.61370891 -8.25 0.9375 C-7.20585937 0.36322266 -7.20585937 0.36322266 -6.140625 -0.22265625 C-3.63859372 -1.1312406 -2.4667645 -0.88336837 0 0 Z " fill="#111B2D" transform="translate(164,93)"/>
<path d="M0 0 C4.05606165 0.46800711 7.46588679 0.87953208 11 3 C6.99799622 4.60080151 3.95443764 3.29279692 0 2 C0 1.34 0 0.68 0 0 Z " fill="#172135" transform="translate(224,89)"/>
<path d="M0 0 C4.1424367 1.38081223 5.32203099 3.59825558 8 7 C7.67 7.66 7.34 8.32 7 9 C5.82460004 8.07347299 4.65989423 7.13336613 3.5 6.1875 C2.52546875 5.40439453 2.52546875 5.40439453 1.53125 4.60546875 C0 3 0 3 0 0 Z " fill="#2480CF" transform="translate(115,205)"/>
<path d="M0 0 C0.66 1.32 1.32 2.64 2 4 C1.34 4 0.68 4 0 4 C-0.04898437 4.63808594 -0.09796875 5.27617187 -0.1484375 5.93359375 C-0.22320312 6.75988281 -0.29796875 7.58617187 -0.375 8.4375 C-0.47941406 9.67306641 -0.47941406 9.67306641 -0.5859375 10.93359375 C-0.72257812 11.61550781 -0.85921875 12.29742187 -1 13 C-1.99 13.495 -1.99 13.495 -3 14 C-2.69147815 12.041036 -2.3780582 10.08284287 -2.0625 8.125 C-1.88847656 7.03445312 -1.71445312 5.94390625 -1.53515625 4.8203125 C-1 2 -1 2 0 0 Z " fill="#192131" transform="translate(285,203)"/>
<path d="M0 0 C0.66 0.33 1.32 0.66 2 1 C2 3 2 3 -0.375 5.5625 C-3 8 -3 8 -5 9 C-4.42647107 5.12867972 -2.51295648 2.91827204 0 0 Z " fill="#2C6DE8" transform="translate(174,175)"/>
<path d="M0 0 C0.33 0.66 0.66 1.32 1 2 C0.34 2.66 -0.32 3.32 -1 4 C-1 4.33 -1 4.66 -1 5 C-3.64 5.33 -6.28 5.66 -9 6 C-6.45543849 3.03134491 -3.51005335 1.6380249 0 0 Z " fill="#3854B8" transform="translate(206,148)"/>
<path d="M0 0 C0.66 0.33 1.32 0.66 2 1 C1.6875 3.875 1.6875 3.875 1 7 C0.01 7.66 -0.98 8.32 -2 9 C-1.34 6.03 -0.68 3.06 0 0 Z " fill="#454CBA" transform="translate(240,233)"/>
<path d="M0 0 C0.66 0.33 1.32 0.66 2 1 C0.90554162 1.86657116 -0.20097781 2.71792724 -1.3125 3.5625 C-1.92738281 4.03816406 -2.54226562 4.51382813 -3.17578125 5.00390625 C-3.77777344 5.33261719 -4.37976563 5.66132813 -5 6 C-5.99 5.67 -6.98 5.34 -8 5 C-8 4.34 -8 3.68 -8 3 C-7.05125 2.690625 -6.1025 2.38125 -5.125 2.0625 C-2.13919592 1.12605258 -2.13919592 1.12605258 0 0 Z " fill="#2958C5" transform="translate(193,220)"/>
<path d="M0 0 C-1 2 -1 2 -2.84765625 2.6328125 C-3.57855469 2.79523438 -4.30945313 2.95765625 -5.0625 3.125 C-6.16271484 3.37636719 -6.16271484 3.37636719 -7.28515625 3.6328125 C-7.85105469 3.75398437 -8.41695312 3.87515625 -9 4 C-9.33 3.34 -9.66 2.68 -10 2 C-6.49223216 0.39644899 -3.85645121 -0.22036864 0 0 Z " fill="#4847B3" transform="translate(245,138)"/>
<path d="M0 0 C3.96 1.98 3.96 1.98 8 4 C8 4.33 8 4.66 8 5 C3.48279689 5.36625971 3.48279689 5.36625971 1.1875 3.625 C0 2 0 2 0 0 Z " fill="#103157" transform="translate(147,262)"/>
</svg>
